<svg xmlns="http://www.w3.org/2000/svg" viewBox="0 0 512 512" role="img" aria-label="סטיית קלוריות">
  <defs>
    <linearGradient id="bg" x1="0" y1="0" x2="0" y2="1">
      <stop offset="0%" stop-color="#5ac8fa"/>
      <stop offset="100%" stop-color="#0a84ff"/>
    </linearGradient>
  </defs>
  <rect width="512" height="512" rx="112" fill="url(#bg)"/>
  <!-- flame -->
  <path fill="#ffffff" d="M256 96c0 64-48 80-48 144 0 48 32 80 48 80s48-32 48-80c0-64-48-80-48-144zm0 240c-70.7 0-128-49.1-128-120 0-44 24-80 48-112 8 40 40 64 40 112 0 18 6 32 14 42-4-2-8-6-8-14 0-32 24-48 24-88 40 32 74 72 74 132 0 70.9-57.3 120-112 120z"/>
  <!-- ± badge -->
  <circle cx="384" cy="384" r="72" fill="#ffffff"/>
  <text x="384" y="404" text-anchor="middle" font-family="-apple-system,system-ui,sans-serif" font-size="72" font-weight="700" fill="#0a84ff">±</text>
</svg>
